<svg width="230" height="40" fill="none" xmlns="http://www.w3.org/2000/svg"><g clip-path="url(#clip0)"><path d="M38.81 20.022c-.056 10.555-8.79 19.092-19.488 19.037C8.597 39.032-.055 30.413 0 19.86.056 9.303 8.79.767 19.488.822c10.725.054 19.377 8.645 19.322 19.2z" fill="#131319"/><path d="M10.2 15.522c.664.136 1.382-.655 1.631-1.773.249-1.118-.083-2.154-.746-2.29-.443-.11-.912.245-1.272.818a.66.66 0 01.304.845c-.138.273-.442.436-.718.382-.139.982.193 1.882.801 2.018zm-3.179-2.345c.526-2.782 2.157-4.8 3.622-4.528 1.492.273 2.239 2.755 1.713 5.537-.497 2.782-2.128 4.8-3.593 4.527-1.493-.273-2.267-2.755-1.742-5.537zm25.68 2.345c-16.558 10.91-27.974 5.373-27.974 5.373-.166 3.791 6.413 15.464 14.319 15.628 7.85.136 13.655-21.001 13.655-21.001zM8.652 19.149c1.742.328 3.621-1.854 4.202-4.882.58-3.027-.36-5.754-2.073-6.082-1.742-.327-3.621 1.855-4.202 4.882-.608 3.055.332 5.782 2.073 6.082zm5.943-1.554a15.984 15.984 0 011.99-1.827c3.428-2.591 7.16-3.246 8.376-1.446.47.71.498 1.664.138 2.727 1.217-1.99 1.604-3.818.857-4.827-1.271-1.691-5.169-.518-8.762 2.591-1.023.873-1.88 1.854-2.599 2.782zM18.41 9.33c2.736-1.827 7.463-2.837 9.979.982-1.548-8.782-8.1-3.737-9.98-.982zm19.902 10.691c-.055 10.282-8.541 18.574-18.99 18.519C8.902 38.486.526 30.113.526 19.831c0-6.654 3.372-11.455 6.578-14.018 3.926-3.137 6.607-.737 7.547 1.09-.111-.763-.443-3-1.3-4.609a18.468 18.468 0 016.165-.982c10.42.082 18.824 8.428 18.796 18.71zm-11.914 9.41c-2.045 3.627-4.588 6.6-7.435 6.545-1.77-.027-3.455-.709-5.003-1.745.497-.873 3.593-5.319 12.438-4.8z" fill="#fff"/><path d="M213.341 21.986l2.93-7.037 2.93 7.037h-5.86zm7.187-11.346h-8.486l-8.901 18.819h7.105l1.547-3.682h8.983l1.521 3.682h7.132l-8.901-18.819zm-65.041 4.828h7.904v13.964h6.497V15.468h7.933V10.64h-22.334v4.828zm-15.148 6.463h11.167v-3.763h-11.167v-2.782h13.074V10.64h-19.349v18.792h19.82v-4.637h-13.545v-2.864zm-9.068-7.936V10.64h-21.062v4.828h11.333l-11.499 10.636v3.328h21.284v-4.828h-11.416l11.36-10.61zM95.448 25.013c-4.146 0-6.69-1.39-6.69-4.964 0-3.572 2.516-4.936 6.69-4.936 4.118 0 6.717 1.364 6.717 4.936 0 3.573-2.571 4.964-6.717 4.964zm0-14.837c-8.32 0-13.517 3.164-13.517 9.873 0 6.682 5.197 9.9 13.517 9.9 8.347 0 13.544-3.19 13.544-9.9 0-6.709-5.197-9.873-13.544-9.873zm-31.042 4.882h6.302c1.963 0 2.71 1.037 2.71 2.373 0 .9-.553 2.51-2.82 2.51h-6.192v-4.883zm15.618 2.373c0-3.982-2.57-6.818-8.735-6.818H57.993v18.819h6.413v-5.319h4.146l4.617 5.319h8.016l-5.363-6.11c2.654-1.118 4.202-3.573 4.202-5.89zm114.41-6.791l-7.906 6.873V10.64h-6.412v18.792h6.412V24.25l2.433-2.019 5.501 7.2h8.016l-8.874-11.1 9.177-7.69h-8.347z" fill="#131319"/></g><defs><clipPath id="clip0"><path fill="#fff" transform="translate(0 .821)" d="M0 0h229.429v38.238H0z"/></clipPath></defs></svg>